<svg xmlns="http://www.w3.org/2000/svg" viewBox="0 0 192 192">
  <path d="M0 0h192v192H0z"/>
  <path fill="#fff" d="M144.1 109.1c-1.9 1.1-4.2 1.7-6.9 1.7s-3.7-.3-5.4-1c-1.7-.7-3.2-1.7-4.4-3-1.3-1.3-2.3-2.9-3-4.6-.8-1.8-1.1-3.8-1.1-6.1 0-2.1.3-4.2 1.1-6.2.7-1.8 1.7-3.4 3-4.8 1.3-1.3 2.8-2.3 4.4-3 1.7-.7 3.6-1 5.5-1 2.3 0 4.5.4 6.6 1.3 1.9.9 3.6 2.2 4.9 3.9l14.3-17.2c-3.2-2.9-7.2-5.3-11.9-7-4.9-1.8-10-2.7-15.2-2.6-5 0-10 .8-14.7 2.6-4.4 1.6-8.5 4.1-12 7.4-2.8 2.6-5.1 5.7-6.9 9.1-1.8-3.5-4.2-6.6-7.1-9.3-3.5-3.1-7.5-5.5-12.2-7.2-4.7-1.7-9.8-2.5-15.3-2.5s-10.6.9-15.3 2.5c-4.7 1.7-8.8 4.1-12.2 7.2-3.5 3.2-6.2 7.1-8.1 11.4-2 4.5-2.9 9.5-2.9 15s1 10.6 2.9 15.2c1.9 4.4 4.6 8.4 8.1 11.7 3.4 3.2 7.5 5.7 12.2 7.5 4.7 1.8 9.8 2.7 15.3 2.7s10.6-.9 15.3-2.7c4.5-1.7 8.7-4.2 12.2-7.5 2.9-2.7 5.2-5.9 7-9.3 1.8 3.5 4.1 6.6 7 9.3 3.5 3.3 7.5 5.8 12 7.5 4.7 1.8 9.7 2.7 14.7 2.7 5.8 0 11-.9 15.6-2.8s8.4-4.4 11.5-7.5l-14.3-17.1c-1.1 1.5-2.6 2.8-4.5 3.9Zm-63.9-7.2c-.6 1.8-1.6 3.5-2.9 4.9-1.2 1.3-2.7 2.4-4.4 3.2-1.7.8-3.6 1.1-5.4 1.1-1.9 0-3.8-.4-5.5-1.1-1.7-.7-3.2-1.8-4.4-3.2-1.2-1.4-2.2-3.1-2.8-4.9-.7-2-1.1-4.1-1-6.3 0-2.1.3-4.2 1-6.1.6-1.8 1.6-3.3 2.8-4.7 1.2-1.3 2.7-2.3 4.4-3 1.7-.7 3.6-1.1 5.5-1.1s3.7.3 5.4 1.1c1.6.7 3.1 1.7 4.4 3 1.3 1.3 2.3 2.9 2.9 4.7.7 2 1.1 4 1 6.1 0 2.1-.3 4.3-1 6.3Z" data-name="Layer_1"/>
</svg>