<svg xmlns="http://www.w3.org/2000/svg" viewBox="0 0 192 192">
  <path d="M0 0h192v192H0z"/>
  <path fill="#fff" fill-rule="evenodd" d="M66.9 142.4h85.5v9.4H57.8V40.1l94.6-9.6v8.8l-85.5 7.9v95.2z"/>
  <path d="M140.9 101.1c-2.6-3.3-5.9-5.7-10.3-7 3.1-1.7 5.5-3.9 7.3-6.8.9-1.7 1.7-3.5 2.2-5.3.4-1.5.6-3.1.6-4.8 0-6.2-2.4-11.2-7.3-14.9S121.5 57 112.3 57H76v77.4h38.5c9.9 0 17.4-1.8 22.6-5.5s7.7-8.8 7.7-15.6-1.3-9.2-3.9-12.3Zm-50.7-33h20.4c5 0 8.8.9 11.6 2.8s4 4.4 4 8.1 0 2-.4 2.9c-.6 2-1.8 3.7-3.7 5-2.8 1.8-6.6 2.8-11.6 2.8H90.1V68.2Zm23.3 54.9H90.2v-22.4h23.3c11.2 0 16.7 3.7 16.7 11.2s-5.7 11.2-16.7 11.2Z"  fill="#fff" />
  <path d="M152.4 158.2H51V35.8l101.4-10.6v-2.6L51 33.3v-8.5h-2.6v8.6l-8.3 1 .2 2.5 8.1-.9v122.2h-8.8v2.7h8.8v8.5H51v-8.5h101.4v-2.7z"  fill="#fff" />
</svg>