<svg xmlns="http://www.w3.org/2000/svg" viewBox="0 0 192 108">
  <path d="M0 0h192v108H0z"/>
  <g>
    <path d="M50.5 68.7c.6.7.8 1.5.7 2.4 0 1.2-.6 2.4-1.5 3.1-1.4.8-2.9 1.2-4.4 1h-7.6V59.9h7.2c1.4 0 3 .3 4.2 1 1 .6 1.5 1.8 1.5 3s-.2 1.4-.6 2.1c-.3.6-.8 1-1.4 1.4.8.2 1.4.7 1.9 1.4Zm-10.1-6.5v4.3h4c.8 0 1.6-.2 2.3-.6.9-.6 1-1.9.4-2.8s-.2-.3-.4-.4c-.7-.4-1.5-.6-2.3-.6h-4Zm8 8.7c0-1.5-1-2.2-3.3-2.2h-4.7v4.4h4.7c2.2 0 3.3-.7 3.3-2.2Z" fill="#fff" />
    <path d="m64.4 75.3-3.1-4.6h-4.1v4.4h-2.9V59.9h6.3c1.2 0 2.4.2 3.5.6 1 .4 1.8 1 2.3 1.8.6.9.8 1.9.8 3s-.2 2.2-.9 3c-.6.9-1.4 1.5-2.4 1.8l3.5 5.1h-3.1Zm-1.1-12c-.8-.6-1.8-.9-2.9-.8h-3.3v6.2h3.4c1 0 2-.2 2.9-.8 1.2-1.1 1.3-3 .2-4.3l-.2-.2Z" fill="#fff" />
    <path d="M80.3 71.8h-7.6l-1.5 3.5h-3l7-15.4h2.9l7 15.4h-3l-1.6-3.5Zm-1-2.3-3-6.7-2.9 6.7h5.9Z" fill="#fff" />
    <path d="M89.5 74.5c-1.2-.6-2.2-1.7-3-2.9-.7-1.2-1.1-2.6-1-4.1 0-1.4.3-2.8 1-4.1.7-1.2 1.8-2.2 3-2.9 1.3-.7 2.7-1 4.2-1 1.2 0 2.4.2 3.5.6 1 .4 1.9 1 2.6 1.8L98 63.6c-1-1.1-2.6-1.8-4.1-1.8s-2 .2-2.9.7c-.8.4-1.5 1.1-1.9 1.9-.5.9-.7 1.8-.7 2.7s.2 1.9.7 2.7c1 1.7 2.8 2.7 4.8 2.6 1.5 0 3-.6 4.1-1.8l1.8 1.8c-.7.9-1.6 1.5-2.6 1.8-1.1.4-2.2.6-3.5.6-1.4.2-2.9-.2-4.2-.9v.2Z" fill="#fff" />
    <path d="M114.1 72.9v2.4h-11.5V60h11.2v2.4h-8.3v4h7.4v2.3h-7.4V73h8.7Z" fill="#fff" />
    <path d="M121.5 73.1v-31l-50.3 5.1-1.1.2h-1.5l-41.2 4.3v30.1h46.7v-2.5H29.8V53.6l38.7-3.5h.9l.5-.2h1.4l47.6-4.4v29.9h10.5v-2.3h-7.9Z" fill="#fff" />
    <path d="M169.5 73.2v2.4h-11.6V60.2h11.2v2.4h-8.3v4h7.4v2.3h-7.4v4.3h8.7Z" fill="#fff" />
    <path d="M153.8 60.3v15.4h-2.3l-8.4-10.4v10.4h-2.9V60.3h2.3l8.4 10.4V60.3h2.9Z" fill="#fff" />
    <path fill="#fff" fill-rule="evenodd" d="M133.3 70.7v4.2l.5.6h2.2V60h-2.6v10.8Z"/>
    <path d="M135.9 33.2 68.5 21.5v23.8l-42.9 4.5v-2.2h-.7v2.3l-2.2.2v.7l2.2-.2v32.9h-2.4v.7h2.4v2.3h.7v-2.3h48.5v-.7H25.6v-33l48.6-5.1v-.7l-3 .3V24.5l62 10.8v22.8h2.6v-25Z" fill="#fff" />
  </g>
</svg>