<svg xmlns="http://www.w3.org/2000/svg" viewBox="0 0 192 108">
  <path fill="#000" d="M0 0h192v108H0z"/>
  <path fill="#fff" d="m74.2 35.4-.1.6 1.3-.9-1.2.3zm-3.5 1.1.5.2.1-.5-.6.3zm25.9-2.6c-2 .6-3.9 1-3.9 1-.6.2-.9-.2-.9-.2l-3.6 2-.4.2 6.2 8.6 2.6-11.6Zm-7.8 34.9 1.8-8-13.2-16-.5.5c-1.8 1.3-2.3 3.1-2.3 3.1-.2.8-.4.5-.4.5v1.5l7.4 9.2 2.5-.7.8.8.3 1.3-2 .6 5.7 7.1Zm-14.5-2.1.3-.3 3.1-3.1-3.5 1.2.1 2.2zm-.1-15.9.1 10.4.3.4 6.6-1.9-7-8.9zm-4-15.1c.3 0 .7.2.7.2l.7-.3v-2.9c.1-.3.4-.5.4-.5.2-.3 1-.3 1-.3.8-.1 1.1.6 1.1.6v1.7c0 .2.1.2.1.2l2.5-1c0-.2.2-.3.3-.4l-.4-.5c-.3.1-.6-.2-.9-.5-.2-.3-.3-.6-.2-.8l-5.9-7.7c-2.2 1.3-4.3 2.8-6.1 4.4l5 6c.3-.1.7.1.9.5.2.3.2.6.2.8l.5.7Zm-4 4.7c.3 0 .5.2.7.6.2.2.2.4.2.6l3.7 4.7.5-8.8-.7-.6-5.1 2.4v.3h.1l.6.7Zm16.7-.1 9.5 12.4 1.6-6.9-6.4-8.8c-1.2.8-3.8 2.6-4.7 3.3Z"/>
  <path fill="#fff" d="M81.6 28.4c.3-.2.7 0 .9.5s.3.8 0 .9l.5.7c.5-.8 1.3-.2 1.3-.2h.2c.3-.1.5 1 .5 1l-1.1.4v.2l.3.4s0-.1.1-.1c.3-.1.7.1.9.5s.3.8 0 .9l2.2 3.1c2.1-1.3 3.9-2.3 3.9-2.3.1 0 .2-.2.2-.2-.3-.4.3-.7.3-.7.2-.5 5-3.9 5-3.9.5-.4 1.2-.5 1.2-.5 2.5-.1 2.3 2 2.3 2v.4L128.4 65c3.3-4.7 5.2-10.1 5.2-15.8 0-17.8-18-32.2-40.3-32.2s-12.4 1.2-17.8 3.3l5.9 8.1Zm10.8 24.7-9.6-12.6-.1.1c-.6.3-3.6 2.9-5 4.1l13.1 15.9 1.7-7.5ZM78 34.1l-1.4.6-2.5 2.7v3l3.2 3.8c1.7-1.4 3.8-3 3.8-3 .2-.3.7-.7 1.4-1.1l-3-3.8c-.3.2-.7 0-.9-.5-.2-.4-.3-.7 0-.9l-.5-.7Zm-18.5-2 3.5 4.5c.2 0 .5.3.6.5.1.2.2.3.2.5l.9 1.1 4.8-2.2c0-.3.2-.5.4-.6l-.5-.6c-.3 0-.6-.2-.9-.5-.2-.3-.2-.5-.2-.7l-5-6.2c-1.5 1.3-2.8 2.7-4 4.3h.2Zm29.3 37-5.9-7.4-4.2 1.2-4.4 5 .2 9.6c3.6 1.6 7.5 2.6 11.6 3.3L88.7 69ZM70 66.6l-.1-1.6-1.9.7 2 .9z"/>
  <path fill="#fff" d="m69.6 72.5.3-5.4-2-.6-4.4 1.5-.7-.7.2-1.6 7.1-2.2.7-14.4v-2.3c.1 0-3.7-4.8-3.7-4.8-.3.2-.7 0-.9-.5-.2-.4-.2-.7 0-.9l-.6-.7h-.2l-.4-.2-1.5.6-.5-.4.2-.6.5-.2c.3-.5.6-.6.8-.6l-.5-.6s0 .1-.2.1c-.3.1-.7-.1-.9-.5s-.3-.8 0-.9l-3.4-4.3c-3.8 4.9-6 10.7-6 17 0 10.5 6.3 19.9 16.1 25.7l.2-2.4Zm12.1-43.2c-.1-.2-.2-.4-.2-.6l-6-8.3c-2 .8-3.9 1.7-5.7 2.7l5.9 7.7c.3 0 .6.2.8.5.2.3.2.6.2.8l.5.6c.3 0 .5.2.5.2l5.3-2.1-.7-.9c-.3-.1-.5-.3-.6-.6Zm-6.8 17c.1-.2 1-1 2.1-1.9l-2.9-3.6v5.7c0 .7.8-.2.8-.2Zm9.7-13.2c-.1-.2-.2-.3-.2-.4l-.7-1-5.5 2.3.5.7c.3 0 .5.2.7.6.2.2.2.5.2.6l3 3.9c1.3-.9 3.1-2.1 4.8-3.1l-2.3-3.3c-.2-.1-.4-.3-.5-.5Zm-37 49.1H136v1H47.6zm.6 3.7h.5v.4c.2-.3.5-.5 1-.5s1 .3 1 1v.3h-.5v-.3c0-.4-.2-.5-.6-.5-.6 0-.8.4-.8 1v2.1h-.5V86Zm7.3 2.5h.5c0 .5-.1.7-.3.9s-.6.2-1.1.2-1-.1-1.2-.4c-.2-.3-.3-.7-.3-1.5s.1-1.1.3-1.4c.2-.3.6-.4 1.2-.4s1 .1 1.2.3c.2.2.3.6.3 1.3v.3h-2.5c0 .6 0 .9.2 1s.4.2.8.2.7 0 .8-.1c.1 0 .2-.2.2-.5Zm0-1v-.2c0-.4 0-.6-.2-.7-.1-.1-.4-.2-.8-.2s-.7 0-.8.2c-.1.2-.2.4-.2.9h2Zm3.2-1.5h.5v.5c.2-.3.6-.5 1.1-.5s.9.2 1.1.4.3.7.3 1.5-.1 1.1-.3 1.3-.6.4-1 .4-.9-.2-1.1-.5v1.9h-.5v-5Zm1.5.4c-.4 0-.7.1-.8.3s-.2.6-.2 1.1 0 .9.2 1.1c.2.2.4.3.8.3s.6-.1.8-.3c.1-.2.2-.5.2-1.1s0-1-.2-1.1c-.2-.2-.5-.3-.9-.3Zm6.7 2.1h.5c0 .5-.1.7-.3.9-.2.2-.6.2-1.1.2s-1-.1-1.2-.4-.3-.7-.3-1.5.1-1.1.3-1.4c.2-.3.6-.4 1.2-.4s1 .1 1.2.3c.2.2.3.6.3 1.3v.3H65c0 .6 0 .9.2 1s.4.2.8.2.7 0 .8-.1c.1 0 .2-.2.2-.5Zm0-1v-.2c0-.4 0-.6-.2-.7-.1-.1-.4-.2-.8-.2s-.7 0-.8.2c-.1.2-.2.4-.2.9h2Zm3.3-1.5h.5v.4c.2-.3.5-.5 1-.5s1 .3 1 1v.3h-.5v-.3c0-.4-.2-.5-.6-.5-.6 0-.8.4-.8 1v2.1h-.5V86Zm6.7 0v.4h-1.3v2.1c0 .4.2.6.5.6s.5-.2.5-.5v-.4h.5v.3c0 .7-.3 1-1 1s-1-.3-1-.8v-2.2h-.5v-.5h.5v-.8h.5v.8h1.3Zm4 0c.6 0 1 .1 1.2.3.2.2.3.7.3 1.5s-.1 1.2-.3 1.5c-.2.2-.6.3-1.2.3s-1-.1-1.2-.3c-.2-.2-.3-.7-.3-1.5s.1-1.2.3-1.5c.2-.2.6-.3 1.2-.3Zm0 .4c-.5 0-.7 0-.8.2-.1.2-.2.5-.2 1.1s0 1 .2 1.1.4.2.8.2.7 0 .8-.2c.1-.2.2-.5.2-1.1s0-1-.2-1.1c-.1-.2-.4-.2-.8-.2Zm4.3-.4h.5v.4c.2-.3.5-.5 1-.5.6 0 1 .3 1 1v.3h-.5v-.3c0-.4-.2-.5-.6-.5-.6 0-.8.4-.8 1v2.1h-.5V86Zm7.4 0-1 3.7c-.2.5-.3.9-.5 1.1-.2.2-.4.3-.7.3h-.3v-.4h.2c.3 0 .5-.2.6-.7v-.4c.1 0 .1 0 .2-.2h-.2l-1.2-3.5h.5l.5 1.6.3.8.2.4.2.4v-.4c.1 0 .2-.4.2-.4l.2-.8.4-1.6h.5Zm8 0v.4h-1.3v2.1c0 .4.2.6.5.6s.5-.2.5-.5v-.4h.5v.3c0 .7-.3 1-1 1s-1-.3-1-.8v-2.2h-.5v-.5h.5v-.8h.5v.8h1.3Zm3-1.5v1.9c.1-.3.5-.5 1.1-.5.9 0 1.3.4 1.3 1.1v2.4h-.5v-2.2c0-.6-.3-.9-.8-.9s-.7 0-.9.2c-.2.2-.2.5-.2.9v2h-.5v-5h.6Zm7.7 3.9h.5c0 .5-.1.7-.3.9s-.6.2-1.1.2-1-.1-1.2-.4-.3-.7-.3-1.5.1-1.1.3-1.4.6-.4 1.2-.4 1 .1 1.2.3c.2.2.3.6.3 1.3v.3h-2.5c0 .6 0 .9.2 1 .1.2.4.2.8.2s.7 0 .8-.1c.1 0 .2-.2.2-.5Zm0-1v-.2c0-.4 0-.6-.2-.7-.1-.1-.4-.2-.8-.2s-.7 0-.8.2c-.1.2-.2.4-.2.9h2Zm3.8-.4h-.5c0-.4.1-.7.3-.8.2-.2.5-.2 1.1-.2s1 .1 1.2.3c.2.2.3.5.3 1v2.3h-.5v-.4c-.2.3-.6.4-1.2.4-.9 0-1.3-.4-1.3-1s.1-.7.3-.9c.2-.2.6-.3 1.1-.3s1 .1 1.1.4v-.4c0-.4 0-.7-.2-.8s-.4-.2-.7-.2c-.6 0-.9.2-.9.5v.1Zm.8.8c-.4 0-.6 0-.8.1-.1.1-.2.3-.2.5s0 .5.2.6c.1.1.4.2.7.2.7 0 1.1-.2 1.1-.7s0-.5-.2-.6c-.2 0-.4-.1-.8-.1Zm6.3-1.8v.4h-1.3v2.1c0 .4.2.6.5.6s.5-.2.5-.5v-.4h.5v.3c0 .7-.3 1-1 1s-1-.3-1-.8v-2.2h-.5V86h.5v-.8h.5v.8h1.3Zm4.9 2.4h.5c0 .5-.1.7-.3.9-.2.2-.6.2-1.1.2s-1-.1-1.2-.4-.3-.7-.3-1.5.1-1.1.3-1.4c.2-.3.6-.4 1.2-.4s1 .1 1.2.3c.2.2.3.6.3 1.3v.3h-2.5c0 .6 0 .9.2 1s.4.2.8.2.7 0 .8-.1c.1 0 .2-.2.2-.5Zm0-1v-.2c0-.4 0-.6-.2-.7-.1-.1-.4-.2-.8-.2s-.7 0-.8.2c-.1.2-.2.4-.2.9h2Zm3.3-1.4h.5v.4c.2-.3.5-.5 1-.5s1 .3 1 1v.3h-.5v-.3c0-.4-.2-.5-.6-.5-.6 0-.8.4-.8 1v2.1h-.5V86ZM95.2 70.8h-2c0-1.6.4-2.7 1.1-3.3.7-.6 2.2-.8 4.3-.8s3.9.4 4.7 1 1.2 2 1.2 3.9v9.2h-2l.2-1.5c-.8 1.1-2.3 1.7-4.7 1.7-3.5 0-5.3-1.4-5.3-4.2s.4-2.9 1.2-3.5 2.2-1 4.3-1 3.9.5 4.4 1.4V72c0-1.6-.2-2.6-.7-3.1-.4-.5-1.4-.7-2.9-.7-2.5 0-3.8.7-3.8 2.1v.4Zm3.2 3.2c-1.6 0-2.6.2-3.1.5s-.7 1-.7 2.1.3 1.9.7 2.2c.5.4 1.4.5 2.9.5 2.9 0 4.3-.9 4.3-2.6s-.3-1.8-.8-2.2c-.5-.4-1.6-.6-3.2-.6Zm11.9-13.1v19.9h-2V60.9h2Zm5.6 0v19.9h-2V60.9h2Zm13.3 15.7h2.1v.5c0 1.5-.4 2.4-1.3 3.1-.9.6-2.4.9-4.6.9s-4.3-.5-5-1.4c-.8-.9-1.2-2.9-1.2-5.9s.4-4.6 1.2-5.6c.8-.9 2.4-1.5 4.7-1.5s4.3.4 5 1.2 1.2 2.5 1.2 5.2v1.1h-10c0 2.2.3 3.6.7 4.2s1.6.9 3.3.9 2.7-.2 3.2-.4c.5-.3.7-.9.7-1.9v-.5Zm0-3.9V72c0-1.5-.3-2.5-.7-3-.5-.5-1.6-.7-3.2-.7s-2.7.3-3.2.8-.7 1.7-.7 3.5h7.9Z"/>
  <path fill="#fff" d="m144.4 66.9-3.9 14.7c-.6 2.1-1.1 3.5-1.8 4.3s-1.7 1.2-2.9 1.2-.6 0-1-.1v-1.7c.3 0 .5.1.7.1 1.1 0 1.9-.8 2.4-2.7l.4-1.3s0-.2.2-.5h-.8L132.6 67h2.2l2.1 6.2 1.1 3.1.5 1.6.5 1.6.4-1.6.4-1.6.8-3.1 1.6-6.2h2.3Z"/>
</svg>