<svg xmlns="http://www.w3.org/2000/svg" viewBox="0 0 192 192">
  <path fill="#000" d="M0 0h192v192H0z"/>
  <g fill="#fff">
    <path d="m58.6 70-.2 1.1 2.4-1.8-2.2.7zm-6.7 2.1.9.3.2-.9-1.1.6zm49.9-5C98 68.3 94.3 69 94.3 69c-1.1.3-1.8-.4-1.8-.4l-7 3.8s-.4.2-.7.4l12 16.6 5-22.3Zm-15 67.2 3.4-15.4-25.5-30.8c-.6.6-1 .9-1 .9-3.5 2.5-4.4 6-4.4 6-.3 1.5-.8 1-.8 1v2.8l14.2 17.8 4.9-1.4 1.6 1.6.5 2.6-3.9 1.2 11 13.7Zm-28-4.1.5-.4 6.1-6.1-6.8 2.3.2 4.2zm-.3-30.6.3 20 .5.9 12.8-3.8-13.6-17.1zm-7.7-29.1c.6 0 1.3.3 1.3.3l1.3-.6v-5.6c.2-.6.8-.9.8-.9.3-.6 2-.6 2-.6 1.6-.2 2.1 1.1 2.1 1.1v3.3c0 .4.2.3.2.3l4.9-2c0-.4.3-.6.5-.7l-.8-1c-.5.2-1.2-.3-1.7-1-.4-.6-.5-1.2-.3-1.6L49.8 46.6c-4.2 2.5-8.2 5.4-11.7 8.5l9.6 11.6c.5-.2 1.3.2 1.8 1 .4.6.4 1.2.3 1.5l1 1.3Zm-7.6 9.1c.5 0 1 .4 1.4 1.1.3.4.4.8.4 1.2l7.2 9 .9-16.9-1.4-1.1-9.8 4.7.2.6 1.1 1.4Zm32.2-.2 18.3 24 3-13.3-12.3-17c-2.3 1.5-7.3 5-9 6.3Z"/>
    <path d="M72.9 56.4c.5-.3 1.3.1 1.8.9s.5 1.5 0 1.8l1 1.4c1-1.5 2.6-.4 2.6-.4h.4c.5-.2 1 1.9 1 1.9l-2.1.8v.3l.6.8c0-.1 0-.2.2-.2.5-.2 1.3.2 1.8 1s.5 1.6 0 1.8l4.3 5.9c4.1-2.5 7.5-4.5 7.5-4.5.2 0 .4-.3.4-.3-.5-.7.6-1.4.6-1.4.3-1 9.7-7.6 9.7-7.6 1-.8 2.4-1 2.4-1 4.9-.2 4.5 3.9 4.5 3.9v.8l54.2 64.7c6.4-9 10-19.4 10-30.5 0-34.3-34.9-62.1-77.8-62.1s-24 2.3-34.4 6.4l11.3 15.6ZM93.6 104 75 79.7l-.2.2c-1.2.5-7 5.5-9.7 7.9l25.3 30.6 3.2-14.4ZM65.8 67.5l-2.7 1.1-4.8 5.2v5.8l6.1 7.3c3.3-2.7 7.3-5.8 7.3-5.8.4-.5 1.4-1.3 2.7-2.2l-5.7-7.4c-.5.3-1.3 0-1.8-.9-.4-.7-.5-1.4 0-1.7l-.9-1.4h-.2Zm-35.5-4 6.8 8.6c.4 0 .9.5 1.2 1 .2.3.3.6.3.9l1.7 2.1 9.2-4.2c0-.6.4-1 .7-1.2l-.9-1.1c-.5 0-1.2-.3-1.7-1-.3-.5-.4-1-.3-1.3l-9.7-11.9c-2.8 2.6-5.4 5.3-7.7 8.3l.3-.2Zm56.4 71.4-11.4-14.2-8.1 2.4-8.4 9.6.4 18.6c6.9 3 14.4 5.1 22.4 6.3l5.1-22.7Zm-36.3-4.8-.2-3.1-3.6 1.3 3.8 1.8z"/>
    <path d="m49.7 141.5.6-10.4-3.9-1.2-8.4 2.8-1.4-1.4.3-3.1 13.6-4.3 1.4-27.8.2-4.4-7.3-9.3c-.5.3-1.3 0-1.8-.9-.4-.7-.4-1.4 0-1.7l-1.2-1.4h-.3l-.8-.3-2.9 1.1-1-.7.3-1.1.9-.4c.5-1 1.1-1.2 1.6-1.2l-.9-1.1c-.1 0-.1.2-.3.2-.5.2-1.3-.2-1.8-1s-.5-1.5 0-1.8L30 63.8c-7.5 9.5-11.8 20.7-11.8 32.8 0 20.3 12.2 38.3 31.1 49.6l.4-4.7Zm23.4-83.4c-.2-.4-.4-.8-.4-1.1L61.1 41c-3.8 1.5-7.5 3.3-10.9 5.3l11.3 14.8c.5-.1 1.2.3 1.6 1 .3.5.4 1.1.3 1.5l.9 1.2c.5 0 1 .3 1 .3l10.2-4c0-.1-1.3-1.9-1.3-1.9-.5-.2-.9-.6-1.2-1.1h.1ZM60 90.9c.2-.4 1.9-1.9 4-3.6l-5.6-6.9.2 10.9c-.2 1.3 1.4-.4 1.4-.4Zm18.6-25.4c-.2-.3-.3-.6-.3-.8l-1.4-1.9-10.7 4.5 1 1.4c.5 0 1 .4 1.4 1.1.3.4.4.9.3 1.2l5.8 7.6c2.5-1.8 6-4 9.3-5.9l-4.5-6.3c-.3-.2-.7-.5-.9-.9Z"/>
  </g>
</svg>