<svg xmlns="http://www.w3.org/2000/svg" viewBox="0 0 192 108">
  <path d="M0 0h192v108H0z"/>
  <path fill="#fff" d="M144.1 21.6v12.7h4.8v-1.4h-3.4V21.6h3.7l-.4-1.4h-3.3V17h3.4v-1.3h-4.8v4.5h-1.2l.5 1.4h.7zm-29.8 12.7h1.3V17h2.2v-1.3h-5.7V17h2.2v17.3zm-9-16.6 3.9 2.4v14.2h1.4V15.7h-1.4v2.9l-5.3-3.3v19h1.4V17.7zm14.1 3.9v12.7h1.4V21.6h3.2v12.7h1.4V19c0-.9-.1-1.8-.6-2.5s-1.2-1.1-2.3-1.1-2.2.5-2.6 1.6c-.2.6-.3 1.6-.3 3.2h-1.2l.4 1.4h.7Zm1.3-3c0-.5.1-.9.4-1.3.3-.3.8-.5 1.2-.5.4 0 .8.1 1.1.5s.4.8.4 1.2v1.6h-3.2v-1.6ZM87.8 30.8c2-.1 3.8-1 5.2-2.4 1.4-1.4 2.1-3.3 2.1-5.2 0-2-.7-3.9-2.2-5.3-1.4-1.4-3.3-2.2-5.2-2.2h-1.2v18.6h1.4v-3.5Zm0-13.8c1.6.1 3.1.8 4.3 1.9 1.1 1.1 1.7 2.7 1.6 4.3 0 1.6-.6 3.2-1.7 4.4-1.1 1.2-2.6 1.8-4.2 1.8V17Zm65.3 15.6c-.5.2-1.6.3-3.2.3v1.4h1.5c1.2 0 2.4-.3 3.3-1 1-.8 1.5-1.9 1.4-3.1 0-1-.4-2.3-1.1-3.8l-2.1-3.7c-.7-1.4-1.1-2.6-1.1-3.6 0-.8.4-1.6 1.2-1.9.8-.2 1.6-.3 2.4-.2v-1.4h-1c-1.1 0-2.1.3-2.9.9-.7.6-1.1 1.5-1.1 2.6s.4 2.2 1.1 3.7c.7 1.2 1.4 2.5 2.1 3.9s1.1 2.5 1.1 3.4c0 1.3-.5 2.2-1.6 2.5Zm-10.3.3h-3.5V15.7h-1.4v18.6h4.9v-1.4zm-6.4 1.4v-1.4c-2.1 0-4.1-.8-5.6-2.3s-2.3-3.6-2.3-5.7.8-4.2 2.3-5.7c1.5-1.5 3.5-2.3 5.6-2.3v-1.4c-2.5 0-4.9.9-6.6 2.6-1.8 1.8-2.7 4-2.7 6.7 0 2.5.9 4.9 2.7 6.6 1.6 1.8 4 2.7 6.5 2.7ZM97 21.6v12.7h4.8v-1.4h-3.4V21.6h3.7l-.5-1.4h-3.2V17h3.4v-1.3H97v4.5h-1.2l.5 1.4h.7zM55.4 31.8c1.8 1.8 4.2 2.8 6.7 2.7 2.5 0 5-1 6.7-2.8 1.8-1.8 2.8-4.2 2.8-6.7s-1-5-2.7-6.8c-1.7-1.8-4.1-2.9-6.6-2.8-2.6 0-5.1 1-6.9 2.8-1.9 1.8-2.9 4.3-2.8 6.9 0 2.6 1 5 2.8 6.7Zm.9-12.6c1.5-1.6 3.5-2.5 5.6-2.5 2.2 0 4.4.8 6 2.4a7.7 7.7 0 0 1 2.4 5.9c0 2.2-.8 4.2-2.4 5.7-1.5 1.5-3.6 2.4-5.8 2.3-2.2 0-4.3-.8-5.8-2.4-1.6-1.5-2.4-3.6-2.4-5.8 0-2.1.8-4.2 2.4-5.7Zm-21.8-3.5h1.4v18.6h-1.4zm39.2 5.9v12.7h1.4V21.6h3.6l-.5-1.4h-3.1V17h3.3v-1.3h-4.7v4.5h-1.2l.5 1.4h.7zM38.9 34.3l2.8-10 2.6 10h1.5l-3.4-12 2-6.6H43l-1.3 5.2-1.5-5.2h-1.4l2.1 7-3.4 11.6h1.4zM112.5 48c-1.9 1.8-2.9 4.3-2.8 6.9 0 2.5 1 5 2.8 6.7 1.8 1.8 4.3 2.8 6.8 2.7 2.5 0 5-1 6.7-2.8 1.8-1.8 2.9-4.2 2.8-6.7 0-2.5-1-5-2.7-6.8-1.7-1.9-4.1-2.9-6.7-2.9-2.6 0-5.1 1-6.9 2.8Zm15 6.9c0 2.2-.8 4.3-2.4 5.7-1.5 1.5-3.6 2.4-5.8 2.4-2.2 0-4.3-.8-5.8-2.4-1.6-1.5-2.5-3.6-2.4-5.8 0-2.2.8-4.3 2.4-5.8 1.5-1.6 3.5-2.5 5.7-2.5s4.4.8 6 2.4c1.6 1.6 2.5 3.7 2.4 6Zm-42.4 9.3h1.4V46.8h2.2v-1.4h-5.8v1.4h2.2v17.4zm-8.4-17.4H79v17.4h1.3V46.8h2.2v-1.4h-5.8v1.4zm29.2 1.2c-1.7-1.9-4.1-2.9-6.7-2.9-2.6 0-5.1 1-7 2.8-1.9 1.8-2.9 4.3-2.8 6.9 0 2.5 1 5 2.8 6.7 1.8 1.8 4.3 2.8 6.8 2.7 2.5 0 5-1 6.7-2.8 1.8-1.8 2.9-4.2 2.8-6.7 0-2.6-.9-5-2.7-6.8Zm1.3 6.9c0 2.2-.8 4.3-2.4 5.7-1.5 1.5-3.6 2.4-5.8 2.4-2.2 0-4.3-.8-5.8-2.4-1.6-1.5-2.5-3.6-2.4-5.8 0-2.2.8-4.3 2.4-5.8 1.5-1.6 3.5-2.5 5.7-2.5s4.4.8 6 2.4c1.6 1.6 2.5 3.7 2.4 6Zm-37.5-8.1c-.2.6-.3 1.6-.3 3.2h-1.2l.4 1.4h.7v12.8h1.4V51.4h3.2v12.8h1.4V48.9c0-.9-.1-1.8-.6-2.6-.5-.7-1.2-1.1-2.3-1.1-1.3 0-2.2.5-2.6 1.6Zm1 1.5c0-.5.1-.9.4-1.3.3-.3.8-.5 1.2-.5.4 0 .8.1 1.1.5.3.4.4.8.4 1.2v1.7h-3.2v-1.7Zm-3-2.9H62v1.4h2.2v17.4h1.4V46.8h2.1v-1.4zM20.6 89.1c.7-1.4 1.4-2.9 2.2-4.3.5-1 1.2-1.8 2-2.4.7-.5 1.5-.8 2.3-1 1.1-.3 3.3-.3 4.3 0 .4.1.5.1.5-.3 0-.6 0-1.2.1-1.8.5-1.7 1.5-3.2 3-4.1 1.2-.8 2.5-1.5 3.8-2.2 1.2-.6 2.4-1 3.6-1.6 1.1-.5 2.2-1.1 3.2-1.8 1.6-1.1 2.9-2.7 3.8-4.5.1-.2.1-.5.3-.7.1-.2.2-.7.7-.3h.3l.3-.6c.4-1.5 1.2-2.8 2-4 .8-1.3 1.9-2.5 2.9-3.7l.4-.4h.3c.1 0 .1.2 0 .3-.2.5-.5.9-.7 1.4-.5 1-1.2 2-2.1 2.7-.4.4-.7.8-1 1.3l-.6 1.2c-.1.3-.3.6-.5.9v.4c.1 0 .3.1.4 0 .3-.1.6-.3.9-.4 1.1-.3 2.1-1.1 2.7-2.1.8-1.4 1.6-2.6 2.1-4.1.2-.8.7-1.5.5-2.3-.2-.8-.5-1.6-.8-2.3-.1-.3-.4-.1-.5 0-1 .5-2.1 1-3 1.6-1.2 1-2.5 2.1-3.6 3.3-.3.4-.5.7-.7 1.1-.3.4-.4.3-.6-.1-.3-.7-.5-1.5-1.1-2-.8-.7-1.5-1.4-2.5-1.8-.7-.3-1.3-.6-1.9-1-.4-.3-.7-.6-1-.9-.2-.2-.4-.6-.3-.8.2-.4.6-.2.9 0 1.1.4 2.2.2 3.3.3.4 0 .8-.1 1.1-.4h.1v-.5c-.1-.1-.2-.2-.3-.2-1.2-.5-2.3-1.4-3.4-2.2-.3-.2-.5-.5-.6-.8 0-.2-.2-.4-.4-.5-.5-.2-1-.3-1.5-.4-.7-.1-1.4-.2-2-.4-.2 0-.3-.2-.5-.3-1.3-1.1-2.5-2.2-4-2.9-1.4-.7-3-1-4.6-1.1-.8 0-1.7 0-2.5.2-5.4 1-9.3 5.8-9.3 11.4 0 .8.1 1.5.3 2.3.3 1.4 1 2.7 1.8 3.9 2.5 3.6 7.3 5.5 11.5 4.5.5 0 1-.3 1.3-.7-2.4.7-4.9.5-7.2-.4-2.3-1-4.1-2.7-5.3-4.9-2.3-4.6-.7-10.2 3.7-12.8 1.4-.8 2.9-1.3 4.5-1.5 2.8-.4 5.6.8 7.3 3.1 0 .1.1.3.1.4-.1 0-.3 0-.4.1h-.6c-.4.1-.7.3-1 .5v.3h.3c.9-.4 1-.3 1.6.4.9 1 1.2 2.3 1.6 3.5.5 1.2 1 2.5 2 3.4 1.4 1.2 1.5 4 .6 5.4-.6.9-1.3 1.8-2.2 2.5-1.4 1.2-2.9 2.3-4.3 3.4l-.6.6c-.9.9-1.7 1.9-2.6 2.7-.5.5-1.2.7-1.9.6-1-.1-1.7-1-1.2-2.1v-.3c-.1 0-.3 0-.4.1-.2.1-.4.3-.5.5-.7 1.1-.4 2.7.7 3.4.3.1.6.3.9.4.5.2.5.3.4.8-.1.5-.3 1-.3 1.5 0 1.3-.7 2.5-1.8 3.3-1.2.8-2.3 1.7-3.7 2-.4.1-.7.3-1.1.4-.4.1-.6.4-.5.8v1.2c-.2 1.5-1 2.7-1.6 4-.3.7-.7 1.4-1.2 1.9l-.8.8c-.2.2-.3.4 0 .5.3.1.5.4.5.8v.6c0 .2.3.4.4.4H21l.2-.3c0-.1-.2-.3-.3-.4-.7-.6-.7-1.4-.5-2.2 0-.2 0-.4.1-.6Zm113.6-36.7c-.3.8-.5 1.5-.8 2.3-.2.8.3 1.5.5 2.3.4 1.5 1.3 2.8 2.1 4.1.5 1 1.5 1.8 2.7 2.1.3.1.6.3.9.4h.4v-.4c-.1-.3-.3-.6-.5-.9-.2-.4-.4-.9-.6-1.2-.3-.5-.6-.9-1-1.3-.9-.8-1.6-1.7-2.1-2.7-.2-.5-.5-.9-.7-1.4v-.3h.3c.2.1.3.2.4.4 1 1.2 2.1 2.3 2.9 3.7.8 1.2 1.6 2.5 2 4 0 .2.2.4.3.6 0 0 .2.1.3 0 .5-.4.5 0 .7.3.1.2.1.5.3.7.9 1.8 2.2 3.3 3.8 4.5 1 .7 2.1 1.3 3.2 1.8 1.2.6 2.4 1 3.6 1.6 1.3.7 2.6 1.4 3.8 2.2 1.5 1 2.5 2.5 3 4.1.1.6.1 1.2.1 1.8 0 .4.1.5.5.3 1-.4 3.2-.3 4.3 0 .8.2 1.6.5 2.3 1 .8.6 1.5 1.5 2 2.4.8 1.4 1.5 2.8 2.2 4.3.1.2.2.4.2.6.3.8.2 1.6-.5 2.2-.1.1-.3.2-.3.4 0 0 .1.3.2.3h2.1c.1 0 .3-.3.4-.4s0-.4 0-.6c0-.3.1-.7.5-.8.4-.1.3-.3 0-.5l-.8-.8c-.5-.5-1-1.2-1.2-1.9-.6-1.3-1.4-2.6-1.6-4 0-.4-.1-.8 0-1.2.1-.4-.1-.7-.5-.8-.4-.1-.7-.3-1.1-.4-1.4-.3-2.6-1.2-3.7-2s-1.8-2-1.8-3.3c0-.5-.1-1-.3-1.5s-.1-.6.4-.8c.3-.1.6-.2.9-.4 1.1-.7 1.5-2.3.7-3.4-.1-.2-.3-.4-.5-.5-.1 0-.3-.1-.4-.1v.3c.5 1.1-.2 2-1.2 2.1-.7.1-1.4-.1-1.9-.6-.9-.9-1.7-1.8-2.6-2.7l-.6-.6c-1.4-1.1-2.9-2.2-4.3-3.4-.8-.7-1.6-1.5-2.2-2.5-.8-1.4-.7-4.2.6-5.4 1-.9 1.5-2.1 2-3.4.4-1.2.7-2.5 1.6-3.5.6-.7.7-.8 1.6-.4h.3v-.3c-.3-.2-.7-.4-1-.5h-.6c-.1 0-.3 0-.4-.1 0-.1 0-.3.1-.4 1.7-2.3 4.5-3.4 7.3-3.1 1.6.2 3.2.7 4.5 1.5 4.4 2.6 6 8.2 3.7 12.8-1.1 2.2-3 3.9-5.3 4.9-2.3.9-4.8 1.1-7.2.4.3.4.8.7 1.3.7 4.3 1 9-1 11.5-4.5.8-1.2 1.5-2.5 1.8-3.9.2-.8.3-1.5.3-2.3 0-5.5-3.8-10.3-9.3-11.4-.8-.1-1.6-.2-2.5-.2-1.6 0-3.2.4-4.6 1.1-1.5.7-2.7 1.8-4 2.9-.1.2-.3.3-.5.3-.7.1-1.4.2-2 .4-.5.1-1 .3-1.5.4-.2 0-.3.3-.4.5 0 .3-.3.7-.6.8-1.1.8-2.1 1.6-3.4 2.2-.1 0-.3.1-.3.2-.1 0-.2.3 0 .4l.1.1c.3.3.7.4 1.1.4 1.1 0 2.2.1 3.3-.3.3-.1.7-.3.9 0 0 .2-.1.5-.3.8-.3.4-.7.7-1 .9-.6.4-1.2.7-1.9 1-1 .4-1.7 1.1-2.5 1.8-.6.5-.9 1.2-1.1 2-.1.4-.3.5-.6.1-.2-.4-.4-.8-.7-1.1-1.1-1.2-2.3-2.3-3.6-3.3-.9-.7-2-1.1-3-1.6-.3-.1-.6-.3-.7 0ZM84.1 89.5c.7-.7 1.1-1.6 1.1-2.6s-.4-1.9-1-2.6c-.7-.7-1.6-1.1-2.6-1.1s-2 .4-2.7 1.1c-.7.7-1.1 1.7-1.1 2.7s.4 1.9 1.1 2.6c.7.7 1.6 1.1 2.6 1 .9 0 1.9-.4 2.6-1.1Zm-4.9-.3c-.6-.6-1-1.4-.9-2.2 0-.9.3-1.6.9-2.2.5-.6 1.3-1 2.2-1s1.7.3 2.3.9 1 1.5 1 2.3-.3 1.6-.9 2.2c-.6.6-1.4.9-2.2.9-.9.1-1.8-.2-2.3-.9Zm-3.7-4c.2-.2.4-.5.4-.8s-.1-.6-.4-.9c-.2-.2-.5-.3-.9-.3h-.5v7.2h.5c.7 0 1.4-.2 1.9-.8.5-.5.8-1.2.8-1.9s-.2-1.2-.5-1.6c-.4-.4-.9-.7-1.4-.9Zm-.8-1.5c.2 0 .4 0 .5.2s.2.3.2.5 0 .4-.2.5-.3.2-.5.2v-1.3Zm1.5 5.6c-.4.4-1 .6-1.5.6v-4.4c.6 0 1.2.2 1.6.6.4.4.7 1 .6 1.6 0 .6-.2 1.2-.7 1.6Zm9.7-6h.5v7.2h-.5zm2.4 6.6c-.4.1-.9.1-1.3.1v.5h.5c.5 0 .9-.1 1.3-.4s.5-.7.5-1.2-.2-1-.4-1.5l-.8-1.5c-.2-.4-.4-.9-.4-1.4 0-.3.2-.6.5-.7.3 0 .6-.1.9 0v-.5h-.4c-.4 0-.8.1-1.2.4-.3.2-.5.6-.4 1 0 .5.2 1 .4 1.4.2.5.5 1 .8 1.5.2.4.4.9.4 1.3.1.4-.1.9-.5 1Zm3.6-6.1v-.5H90v1.8h-.4l.2.5h.2v4.9h1.9V90h-1.3v-4.4H92l-.1-.5h-1.3v-1.3h1.3zm1.2 7.4.3-.5c.1-.2.2-.4.2-.6s0-.2-.1-.2-.2-.1-.2-.1c-.1 0-.2 0-.3.1 0 0-.1.2-.1.3 0 .2.1.3.2.4l-.3.5h.3Zm8.7-6.9c-.7-.7-1.6-1-2.6-1h-.5v7.2h.4c1 0 1.9-.4 2.6-1 .7-.7 1.1-1.6 1.1-2.6s-.3-1.9-1-2.6Zm-.4 4.8c-.5.6-1.3.9-2.2.9v-6.2c.8 0 1.6.3 2.2.9.6.5.9 1.3.9 2.2 0 .8-.3 1.6-.9 2.2Zm15-4.8c-.7-.7-1.6-1.1-2.6-1.1s-2 .4-2.7 1.1c-.7.7-1.1 1.7-1.1 2.7s.4 1.9 1.1 2.6c.7.7 1.6 1.1 2.6 1 1 0 1.9-.4 2.6-1.1.7-.7 1.1-1.6 1.1-2.6s-.4-1.9-1.1-2.6Zm-.3 4.9c-.6.6-1.4.9-2.2.9s-1.6-.3-2.2-.9-1-1.4-.9-2.2c0-.9.3-1.6.9-2.2.5-.6 1.3-1 2.2-1s1.7.3 2.3.9 1 1.5 1 2.3c0 .9-.4 1.7-1 2.2Zm-10.3 1.3v-6c0-.4 0-.7-.2-1s-.5-.4-.9-.4-.9.2-1 .6c-.1.4-.2.9-.1 1.3h-.5l.2.5h.3v4.9h.5v-4.9h1.2v4.9h.5Zm-1.7-5.5v-.7c0-.2 0-.4.2-.5.1-.1.3-.2.5-.2s.3 0 .4.2.2.3.1.5v.7h-1.2Zm4.7.1h-1.3v-1.8h-.6v1.8h-.4l.2.5h.2v4.9h.6v-4.9h1.3v4.9h.6v-7.2h-.6v1.8zm-11.7-1.8h.5v7.2h-.5z"/>
</svg>