<svg xmlns="http://www.w3.org/2000/svg" viewBox="0 0 192 192">
  <path d="M0 0h192v192H0z"/>
  <g fill="#fff">
    <path d="M121.2 35.4c-7.7-3.2-16-4.9-24.4-4.9h-1c-8.8 0-17.5 1.6-25.6 5.2-24.1 10.3-39.8 34-39.8 60.2 0 36.3 29.3 65.7 65.6 65.7 17.4 0 34.2-7 46.5-19.3 12.2-12.3 19.1-29 19-46.3 0-26.5-16-50.3-40.4-60.5Zm-80.1 83.7c-5.2-12.4-6.1-26.3-2.5-39.3l15.7 11.4 17.4 12.7-5.1 15.8-7.4 22.7c-5.6-2.9-14.2-14-18.2-23.3ZM79 81.5l-.4 1.2c-1.6 5.2-3.3 10.1-5 15.4L50.7 81.5H79Zm34.4 20.2L96 114.4l-17.4-12.6 2.8-8.5 3.9-11.9H107c2.2 6.7 4.3 13.4 6.5 20.3ZM91 118l-8.4 6.1-14.8 10.7 8.8-27.3c3.1 2.2 6 4.3 9.1 6.6 1.7 1.3 3.5 2.5 5.3 3.8Zm19.7-7.1c1.5-1.1 3-2.2 4.6-3.3l8.9 27.3-8.1-5.9-15.1-11c3.2-2.4 6.4-4.7 9.7-7.1Zm2.3-29.5h28.3L118.4 98c-1.8-5-3.5-10.2-5.4-16.6Zm13.7-6h-15.8c-4.2-12.9-8.4-25.7-12.6-38.7.8 0 1.7-.1 2.6-.1 5.5.1 10.9 1.3 15.9 3.5 5.6 2.3 10.9 5.5 15.8 9.2 4.8 3.7 9 8 12.7 12.9 3 3.9 5.2 8.4 6.5 13.2h-25Zm-21.9 0H87.1L91.7 61l4.2-12.9 2 6.3 6.8 20.9Zm-21 55c4-2.9 8.1-5.9 12.2-8.9l19.6 14.2 13.2 9.6c-9.7 6.7-21.2 10.2-32.9 10-11.7.1-23.2-3.3-32.8-10 6.9-5.1 13.9-10.1 20.6-15Zm36.5-26.5 24.2-17.6 8.6-6.2c1.6 4.9 2.4 10 2.4 15.2 0 5.9-.8 11.9-2.4 17.6-1.7 5.9-4.3 11.5-7.7 16.6-3.3 4.9-7.4 9.3-12.2 12.9-.9-2.2-3.1-8.1-6.1-17.1-3.2-9.6-5.8-17.8-6.7-21.4Zm-60.8-55c9-7 22.8-12.3 32.1-12.3h1.9L81 75.2H40.3c1.3-4.5 3.3-8.7 6.2-12.5 3.6-5.2 8-9.9 12.9-13.9Z" class="cls-1"/>
    <path d="M98.3 82.6c-.5 0-1-.1-1.5-.1-4.1 0-7.7 2.9-8.3 7-.3 2.3.3 4.5 1.6 6.3 1.3 1.7 3.3 2.8 5.4 3h2.3l-5 11.2 3.5 1.6.4-.9c.6-1.4 1.3-2.9 1.9-4.3 1.8-4 3.5-7.8 5.3-11.7.4-.9.6-1.8.8-2.8.4-2.1 0-4.4-1.3-6.1-1.2-1.8-3.1-3-5.2-3.3Zm2.8 8.3c0 2.4-1.9 4.3-4.3 4.2-1.3 0-2.5-.5-3.3-1.3s-1.3-1.9-1.3-3.1c0-2.4 1.9-4.4 4.4-4.5h.2c2.5 0 4.4 2 4.4 4.5v.2Z" class="cls-1"/>
  </g>
</svg>