<svg width="500" height="500" viewBox="0 0 500 500" fill="none" xmlns="http://www.w3.org/2000/svg">
<rect width="500" height="500" fill="black"/>
<path d="M64 126.57H111.224V148.728C111.852 148.453 112.241 148.407 112.405 148.191C123.165 133.979 137.81 126.335 155.008 123.508C178.024 119.725 199.94 122.743 219.602 136.168C237.941 148.69 249.101 166.465 254.584 187.702C262.805 219.539 261.19 250.743 244.776 279.8C228.448 308.703 202.731 322.041 169.864 321.649C152.146 321.436 136.015 316.385 122.398 304.552C120.151 302.598 118.058 300.466 115.418 297.968V393H64V126.57ZM207.833 222.154C207.347 217.573 207.144 212.939 206.292 208.43C205.532 204.408 204.4 200.376 202.832 196.6C195.766 179.596 183.291 169.287 164.75 167.833C145.952 166.36 130.747 173.554 121.772 190.407C110.578 211.427 110.472 233.303 122.224 254.114C137.298 280.805 174.473 284.095 194.533 261.004C204.136 249.949 207.388 236.531 207.833 222.154Z" fill="white"/>
<path d="M346.02 317.183H294.565V126.614H341.902V149.655C356.97 129.004 377.86 123.742 401.733 124.76V173.344C394.313 173.344 386.879 172.527 379.687 173.506C361.735 175.948 350.406 187.542 347.558 205.646C346.618 211.615 346.119 217.712 346.088 223.754C345.943 253.512 346.022 283.271 346.022 313.031V317.182L346.02 317.183Z" fill="white"/>
<path d="M440.99 319.45C425.972 319.488 415.463 309.125 415.414 294.23C415.363 279.348 426.216 268.443 441.048 268.473C455.545 268.502 466.52 279.535 466.55 294.11C466.581 308.829 455.904 319.415 440.99 319.452V319.45Z" fill="white"/>
</svg>
