<?xml version="1.0" encoding="UTF-8"?>
<svg fill="none" viewBox="0 0 226 40" xmlns="http://www.w3.org/2000/svg">
    <g clip-path="url(#protorebel-logo)" fill="#fff">
        <path d="m160.62 28.69v2.6092h-5.588v-31.289h6.062v11.556c0.746-0.5374 1.409-1.1326 2.175-1.5495 4.348-2.3654 10.371-0.86743 12.87 3.3146 2.689 4.4989 2.764 9.185 0.205 13.736-2.052 3.6528-5.499 5.0222-9.685 4.6983-2.017-0.1559-3.834-0.8249-5.289-2.257-0.228-0.2247-0.434-0.4727-0.75-0.8208v1e-3zm11.396-8.1446c-7e-3 -1.1761-0.167-2.2013-0.607-3.1689-0.85-1.8735-2.289-3.0161-4.416-3.1882-2.232-0.1802-4.046 0.6164-5.118 2.5586-1.374 2.4888-1.359 5.0596 0.141 7.4948 1.681 2.7287 5.742 3.1912 8.1 0.9868 1.395-1.3046 1.85-2.9857 1.901-4.6831h-1e-3z"/>
        <path d="m6.0895 40h-6.0895v-30.531h5.5693v2.5991c0.31771-0.3431 0.5316-0.5981 0.76936-0.8289 1.7962-1.7358 4.0378-2.3198 6.4829-2.3016 4.5404 0.0334 8.0581 2.5364 9.5096 6.9027 1.1971 3.6042 1.0559 7.1982-0.6687 10.644-2.0474 4.091-6.2286 5.8561-10.585 5.2063-1.9363-0.2884-3.609-1.0931-4.9868-2.6467v10.955h-0.00103zm10.886-19.454c-0.0073-1.1771-0.1672-2.2013-0.6064-3.1699-0.8503-1.8735-2.2894-3.0172-4.4168-3.1892-2.2312-0.1802-4.0462 0.6164-5.1187 2.5586-1.3736 2.4888-1.3601 5.0586 0.14016 7.4948 1.681 2.7287 5.7416 3.1922 8.0996 0.9888 1.3964-1.3046 1.8512-2.9857 1.901-4.682l0.0011-0.0011z"/>
        <path d="m150.75 22.081h-16.276c0.113 1.082 0.462 2.0324 1.129 2.84 1.762 2.1326 5.614 2.4473 7.698 0.6367 0.304-0.2632 0.509-0.6306 0.783-0.9282 0.11-0.1194 0.285-0.2591 0.432-0.2601 1.884-0.0162 3.767-0.0091 5.65-6e-3 0.048 0 0.095 0.0232 0.18 0.0465-0.512 1.7054-1.404 3.1801-2.715 4.3946-2.747 2.5435-6.063 3.42-9.745 2.8745-5.173-0.7662-8.622-4.2914-9.347-9.3945-0.433-3.0496 0.023-5.9462 1.779-8.5464 2.219-3.2843 5.454-4.8045 9.441-4.7964 5.885 0.01215 10.404 4.0576 10.975 9.8064 0.107 1.0779 0.016 2.1751 0.016 3.3329zm-6.041-4.2762c-0.438-2.7226-2.648-4.2124-5.367-4.1011-3.055 0.1255-4.595 2.3977-4.72 4.1011h10.087z"/>
        <path d="m203.22 22.097h-16.246c0.103 2.4301 2.123 4.4159 4.58 4.589 1.548 0.1083 3.004-0.078 4.219-1.1225 0.218-0.1872 0.47-0.3907 0.574-0.6396 0.229-0.5476 0.641-0.583 1.154-0.5749 1.572 0.0233 3.145 0.0081 4.717 0.0081h0.61c-0.429 1.4686-1.122 2.7347-2.123 3.8207-2.782 3.0131-6.315 4.0829-10.348 3.4979-5.171-0.749-8.628-4.2944-9.349-9.3894-0.431-3.0495 0.021-5.9472 1.778-8.5464 2.23-3.3015 5.484-4.8217 9.492-4.7974 5.866 0.03542 10.355 4.0717 10.927 9.8024 0.108 1.0779 0.015 2.176 0.015 3.3511v1e-3zm-16.157-4.3106h10.118c-0.493-2.5951-2.526-4.1801-5.175-4.0981-2.966 0.0921-4.619 1.9828-4.943 4.0981z"/>
        <path d="m52.693 31.831c-6.7882 0.0222-11.785-4.7914-11.848-11.415-0.0613-6.5535 4.9557-11.449 11.77-11.485 6.8214-0.03542 11.85 4.8126 11.859 11.434 0.0094 6.598-4.9691 11.443-11.781 11.465zm5.7355-11.456c-0.0966-0.6629-0.1444-1.337-0.298-1.9868-0.5389-2.2783-2.2302-3.8046-4.5684-4.175-2.252-0.3573-4.4781 0.586-5.6171 2.4342-1.0777 1.7489-1.2241 3.6537-0.7714 5.598 0.4713 2.0242 1.6654 3.5191 3.7679 4.1062 2.116 0.591 4.0918 0.2479 5.698-1.3107 1.3124-1.2743 1.7225-2.9038 1.789-4.6649v-1e-3z"/>
        <path d="m81.082 20.401c-0.0363-6.5687 4.9744-11.445 11.786-11.469 6.8069-0.02429 11.808 4.7883 11.844 11.4 0.036 6.6101-4.9713 11.493-11.797 11.501-6.7945 0.0081-11.795-4.8228-11.832-11.43v-1e-3zm17.585 0.0081c-0.0956-0.6629-0.1444-1.336-0.2939-1.9868-0.5253-2.2843-2.197-3.8126-4.5403-4.2023-2.2469-0.3725-4.475 0.5526-5.6316 2.3987-1.1027 1.7591-1.2574 3.6851-0.7891 5.6426 1.1701 4.8905 6.5494 5.2316 9.062 3.1477 1.5813-1.3117 2.1025-3.0516 2.1918-4.9999h0.0011z"/>
        <path d="m69.375 14.097h-3.01v-4.6517h3.0017v-5.427h6.105v5.4078h3.7129v4.6699h-3.7087v0.581c0 3.0586-0.0021 6.1172 0 9.1758 2e-3 1.8998 0.9053 2.6538 2.849 2.3846 0.272-0.0375 0.542-0.0871 0.8368-0.1356v5.1102c-0.3997 0.0566-0.8005 0.1356-1.2044 0.167-1.4504 0.1133-2.8957 0.1315-4.3213-0.2349-2.3693-0.6082-3.6754-2.1477-4.0731-4.4452-0.1308-0.7581-0.1755-1.5374-0.1796-2.3066-0.0187-3.2094-0.0083-6.4199-0.0083-9.6293v-0.666z"/>
        <path d="M207.509 0H213.547V31.2978H207.509V0Z"/>
        <path d="m39.929 9.2508v5.512c-0.7631 0-1.5065-0.0638-2.2354 0.0111-2.4804 0.2551-3.9008 1.6194-4.2268 4.0262-0.0852 0.6306-0.1173 1.2723-0.1194 1.9089-0.0114 3.3116-0.0052 6.6233-0.0052 9.935v0.6427h-6.0781v-21.812h5.5766v2.6031c1.8035-2.3208 4.2445-2.9705 7.0893-2.8268h-1e-3z"/>
        <path d="m120.27 9.4694v2.7671c1.791-2.4746 4.237-3.1355 7.072-2.9847v5.512c-0.764 0-1.509-0.0628-2.239 0.0111-2.449 0.248-3.88 1.6144-4.21 3.9888-0.089 0.6467-0.121 1.3056-0.123 1.9595-0.013 3.3116-5e-3 6.6233-5e-3 9.9349v0.6336h-6.065v-21.822h5.57z"/>
        <path d="m221.8 31.648c-2.4-0.0445-4.104-1.7318-4.049-4.008 0.056-2.2955 1.814-3.9776 4.139-3.9604 2.342 0.0172 4.155 1.8036 4.108 4.0474-0.049 2.3279-1.801 3.9655-4.197 3.921h-1e-3z"/>
    </g>
    <defs>
        <clipPath id="protorebel-logo">
            <rect width="226" height="40" fill="#fff"/>
        </clipPath>
    </defs>
</svg>
