<svg width="390" height="390" viewBox="0 0 390 390" fill="none" xmlns="http://www.w3.org/2000/svg">
<path fill-rule="evenodd" clip-rule="evenodd" d="M390 0H0V390H390V0ZM140.847 52.0587C140.586 52.0754 140.307 52.0934 140 52.109H140.002V337.567C140.109 337.567 140.215 337.567 140.319 337.568C140.524 337.568 140.724 337.569 140.924 337.567C141.914 337.552 142.905 337.536 143.896 337.521C146.874 337.473 149.852 337.426 152.83 337.404C153.457 337.398 153.835 337.204 154.153 336.665C154.844 335.497 155.55 334.336 156.256 333.175C156.927 332.071 157.598 330.968 158.256 329.856C174.642 302.234 191.024 274.612 207.407 246.989C216.51 231.641 225.612 216.293 234.715 200.946C235.095 200.305 235.481 199.668 235.898 198.979C236.069 198.698 236.245 198.407 236.428 198.105V338.002H250C249.953 298.824 249.961 259.645 249.97 220.463C249.982 164.551 249.995 108.635 249.844 52.7124C249.659 52.6932 249.505 52.6742 249.372 52.6578C249.133 52.6283 248.961 52.6069 248.787 52.6069C248.067 52.6085 247.347 52.609 246.627 52.6096C243.867 52.6118 241.107 52.6141 238.348 52.6698C237.652 52.6847 236.883 52.8975 236.289 53.2547C234.852 54.1153 233.462 55.0685 232.116 56.068C220.129 64.9686 208.149 73.8822 196.188 82.8199C195.499 83.3344 195.071 83.3382 194.382 82.8199C185.38 76.044 176.374 69.2718 167.324 62.5607C162.861 59.2514 158.319 56.0513 153.776 52.8531C153.189 52.4385 152.387 52.1498 151.672 52.1257C149.082 52.0357 146.489 52.0224 143.896 52.0091C143.344 52.0063 142.791 52.0034 142.239 51.9998C141.799 51.9974 141.358 52.0258 140.847 52.0587ZM153.592 316.934L153.365 316.889V315.923C153.362 310.273 153.359 304.623 153.356 298.974C153.339 265.121 153.322 231.269 153.289 197.416C153.287 196.559 153.553 196.006 154.229 195.499C163.631 188.436 173.023 181.362 182.415 174.288C184.606 172.639 186.796 170.989 188.987 169.339C189.565 168.903 190.147 168.471 190.728 168.039C191.764 167.268 192.8 166.498 193.82 165.708C194.327 165.313 194.681 165.252 195.238 165.671C206.616 174.212 218.009 182.737 229.416 191.24C230.031 191.697 229.946 192.017 229.607 192.571C212.313 220.859 195.029 249.153 177.745 277.447L173.976 283.617C172.174 286.567 170.371 289.518 168.569 292.468C163.741 300.372 158.912 308.276 154.083 316.179C153.972 316.36 153.854 316.538 153.736 316.716C153.688 316.789 153.64 316.861 153.592 316.934ZM156.598 124.488C156.419 124.366 156.235 124.241 156.044 124.108H156.046C156.144 124.033 156.233 123.963 156.316 123.899C156.478 123.772 156.618 123.663 156.762 123.559C160.139 121.133 163.516 118.709 166.892 116.284C176.089 109.68 185.287 103.076 194.477 96.4624C195.04 96.0589 195.421 95.9423 196.06 96.4032C206.115 103.651 216.185 110.879 226.254 118.107C228.587 119.781 230.919 121.455 233.251 123.129C233.346 123.198 233.436 123.271 233.542 123.357C233.599 123.404 233.661 123.454 233.73 123.509C233.691 123.55 233.656 123.591 233.623 123.63C233.558 123.706 233.499 123.776 233.428 123.827C230.32 126.064 227.211 128.3 224.101 130.536C214.595 137.374 205.088 144.212 195.597 151.071C194.786 151.658 194.277 151.649 193.475 151.068C183.312 143.707 173.13 136.373 162.949 129.038C161.14 127.736 159.332 126.433 157.523 125.13C157.224 124.915 156.919 124.707 156.598 124.488ZM186.83 89.8031C175.658 98.1744 164.585 106.472 153.316 114.917V65.7404C160.639 70.9986 167.899 76.2111 175.181 81.4391C179.053 84.2197 182.932 87.0046 186.83 89.8031ZM228.831 176.57C220.43 170.504 212.067 164.466 203.646 158.386C210.54 153.222 217.391 148.089 224.255 142.946C228.314 139.905 232.379 136.86 236.459 133.803V182.078L228.831 176.57ZM217.58 100.174C212.981 96.7282 208.379 93.2805 203.753 89.8142C209.402 85.7577 215.011 81.7311 220.619 77.7044C225.907 73.9082 231.195 70.1118 236.517 66.2901V114.364C230.174 109.609 223.879 104.894 217.58 100.174ZM153.354 181.545V134.336C158.965 138.54 164.545 142.72 170.129 146.903C175.221 150.718 180.316 154.535 185.441 158.375C180.731 161.776 176.039 165.164 171.343 168.555C165.366 172.871 159.384 177.191 153.354 181.545Z" fill="black"/>
</svg>
