<svg xmlns="http://www.w3.org/2000/svg" viewBox="0 0 200 200">
  <path d="M0 0v200h200V0H0Zm100 173.6c-40.6 0-73.6-32.9-73.6-73.6s33-73.6 73.6-73.6 73.6 32.9 73.6 73.6-32.9 73.6-73.6 73.6Z"/>
  <path d="M140.2 78.4s3.7-14.4-1.3-20.5c-5.6-.6-15.6 5.3-19.9 8.1 0 0-6.8-2.8-18-2.8S83 66 83 66c-4.3-2.8-14.3-8.7-19.9-8.1-5 6.1-1.3 20.5-1.3 20.5s-7 7-7 20.5c0 35 32.8 34.6 32.8 34.6s-3.3 3.7-4 9.2c-2.3.8-5.4 1.8-8.4 1.8-7.1 0-12.5-6.9-14.5-10.1-2-3.2-6-5.8-9.7-5.8s-3.7 1.2-3.7 2.6 3.4 2.4 5.7 5c4.8 5.5 4.7 17.9 21.8 17.9s5.6-.5 8.5-.9c0 6 .5 11.9-2.2 17.5 5.2 2.9 14 2.9 19.8 2.9 4.2 0 8.4-.4 12.5-1.2 1.5-.3 4.6-.4 5.8-1.3 1.5-1.1.5-2.7 0-4.6-1.6-6.8-.7-14.7-.7-21.7 0-6.6-4.2-11.3-4.2-11.3s32.8.4 32.8-34.6-7-20.5-7-20.5Z"/>
</svg>