<svg xmlns="http://www.w3.org/2000/svg" viewBox="0 0 200 200">
  <path d="M0 0v200h200V0H0Zm100 173.6c-40.6 0-73.6-32.9-73.6-73.6s33-73.6 73.6-73.6 73.6 32.9 73.6 73.6-32.9 73.6-73.6 73.6Z"/>
  <path d="M73.9 64.8c10.6 7.9 21.9 24.1 26.1 32.7v22.8c0-.5-.2 0-.6 1.2-2.2 6.4-10.7 31.4-30.1 11.4-10.2-10.5-5.5-21.1 13.1-24.2-10.6 1.8-22.6-1.2-25.9-13-.9-3.4-2.6-24.3-2.6-27.1 0-14.1 12.3-9.7 19.9-3.9Zm52.2 0c-10.6 7.9-21.9 24.1-26.1 32.7v22.8c0-.5.2 0 .6 1.2 2.2 6.4 10.7 31.4 30.1 11.4 10.2-10.5 5.5-21.1-13.1-24.2 10.6 1.8 22.6-1.2 25.9-13 .9-3.4 2.6-24.3 2.6-27.1 0-14.1-12.3-9.7-19.9-3.9Z"/>
</svg>