<svg xmlns="http://www.w3.org/2000/svg" viewBox="0 0 200 200">
  <path d="M0 0v200h200V0H0Zm100 173.6c-40.6 0-73.6-32.9-73.6-73.6s33-73.6 73.6-73.6 73.6 32.9 73.6 73.6-32.9 73.6-73.6 73.6Z"/>
  <path d="M99.6 54.1c-42.2 0-45.5 3.3-45.5 45.5v.8c0 42.2 3.3 45.5 45.5 45.5h.8c42.2 0 45.5-3.3 45.5-45.5v-.4c0-42.5-3.3-45.9-45.9-45.9h-.4Zm27.9 13.8c2.5 0 4.6 2 4.6 4.6s-2 4.6-4.6 4.6-4.6-2-4.6-4.6 2-4.6 4.6-4.6Zm-27.6 9.2c12.7 0 23 10.2 23 22.9s-10.2 23-22.9 23-23-10.2-23-22.9 10.2-23 22.9-23Zm.1 9.1c-7.6 0-13.7 6.2-13.7 13.8 0 7.6 6.2 13.7 13.8 13.7 7.6 0 13.7-6.2 13.7-13.8 0-7.6-6.2-13.7-13.8-13.7Z"/>
</svg>