<svg xmlns="http://www.w3.org/2000/svg" viewBox="0 0 200 200">
  <path d="M0 0v200h200V0H0Zm100 173.6c-40.6 0-73.6-32.9-73.6-73.6s33-73.6 73.6-73.6 73.6 32.9 73.6 73.6-32.9 73.6-73.6 73.6Z"/>
  <path d="M109.4 55.8c-7.4 0-12.9 6.1-12.9 12.9v11.9c-9.7.5-18.6 3.1-25.7 7.2-2.7-2.6-6.4-3.8-10-3.8-3.9 0-7.8 1.3-10.5 4.4v.1c-2.6 3.3-3.6 7.6-2.9 11.9.6 4 2.9 7.9 6.9 10.5v1.3c0 17.5 20.6 31.8 46 31.8s46-14.3 46-31.8v-1.3c4-2.6 6.3-6.6 6.9-10.5.7-4.3-.3-8.7-2.9-11.9v-.1c-2.7-3.1-6.7-4.4-10.5-4.4-3.6 0-7.2 1.2-10 3.8-7.1-4.1-16-6.7-25.7-7.2V68.7c0-3.5 2-5.9 5.9-5.9s4.1.9 7.6 2.2c3 1 6.8 2.1 11.8 2.4 1.2 3.5 4.5 6 8.3 6s8.8-4 8.8-8.8-4-8.8-8.8-8.8-6.2 1.9-7.7 4.6c-4.2-.2-7.3-1.1-10.1-2-3.2-1.1-6.1-2.6-9.9-2.6ZM60.8 91.1c1.4 0 2.7.4 3.8 1-3.9 3.3-6.9 7.1-8.7 11.2-.9-1.2-1.5-2.5-1.7-3.9-.4-2.4.3-4.8 1.5-6.3 1.1-1.1 3-2 5.1-2Zm78.4 0c2.1 0 4.1.8 5.1 2 1.1 1.5 1.8 3.9 1.5 6.3-.2 1.4-.8 2.7-1.7 3.9-1.8-4.2-4.7-8-8.7-11.2 1.1-.6 2.4-1 3.8-1Zm-56.9 7.1c3.9 0 7.1 3.2 7.1 7.1s-3.2 7.1-7.1 7.1-7.1-3.2-7.1-7.1 3.2-7.1 7.1-7.1Zm35.4 0c3.9 0 7.1 3.2 7.1 7.1s-3.2 7.1-7.1 7.1-7.1-3.2-7.1-7.1 3.2-7.1 7.1-7.1Zm.8 19.6c-2.3 6.6-9.5 12.3-18.5 12.3s-16.3-5.7-18.5-11.8c4.1 3.3 10.8 5.7 18.5 5.7s14.5-2.4 18.5-6.1Z"/>
</svg>