<svg xmlns="http://www.w3.org/2000/svg" viewBox="0 0 200 200">
  <path d="M0 0v200h200V0H0Zm100 173.6c-40.6 0-73.6-32.9-73.6-73.6s33-73.6 73.6-73.6 73.6 32.9 73.6 73.6-32.9 73.6-73.6 73.6Z"/>
  <path d="M115.9 49.3ZM100 54.2c-8.9 0-17 3.5-23.1 9.1l12.7 10.6 15.8-19.2c-1.8-.3-3.6-.5-5.4-.5Zm12.3 2.3L96.5 75.7c1.1-.3 2.3-.5 3.5-.5 7.1 0 12.9 5.8 12.9 12.9v.5l15.6-18.8c-3.9-6-9.5-10.7-16.3-13.3ZM75.8 61Zm-3.2 7.1c-4.1 5.6-6.5 12.5-6.5 20s.7 8.3 2 11.9l17.4-21.1-12.9-10.7Zm59.1 8-44.2 53c3.8 5.3 7.3 11.2 9.6 18.4.9 2.8 4.9 2.8 5.8 0 8.3-25.4 31-35 31-59.4s-.8-8.3-2.2-12ZM87.1 87 71 106.5c3.3 6 7.9 11.4 12.5 17.3l19.3-23.1c-.9.2-1.8.3-2.8.3-7.1 0-12.9-5.8-12.9-12.9V87Z"/>
</svg>